<?xml version="1.0" encoding="UTF-8"?>
<svg width="62px" height="64px" viewBox="0 0 62 64" version="1.1" xmlns="http://www.w3.org/2000/svg" xmlns:xlink="http://www.w3.org/1999/xlink">
    <!-- Generator: Sketch 40.3 (33839) - http://www.bohemiancoding.com/sketch -->
    <title>handwork</title>
    <desc>Created with Sketch.</desc>
    <defs>
        <linearGradient x1="100%" y1="100%" x2="50%" y2="0%" id="linearGradient-1">
            <stop stop-color="#946AFF" offset="0%"></stop>
            <stop stop-color="#E36FFF" offset="100%"></stop>
        </linearGradient>
    </defs>
    <g id="Draft-02" stroke="none" stroke-width="1" fill="none" fill-rule="evenodd">
        <g id="Flat-Thin-12" transform="translate(-389.000000, -4468.000000)" fill="url(#linearGradient-1)">
            <g id="Group-30" transform="translate(-5.000000, 3275.000000)">
                <g id="Group-8" transform="translate(394.000000, 1193.000000)">
                    <path d="M32.3333333,61.3333333 L21.376,61.3333333 L18.96,51.6773333 C18.6613333,50.4906667 16.6666667,50.4906667 16.3706667,51.6773333 L13.9573333,61.3333333 L3,61.3333333 L3,42.6666667 L59,42.6666667 L59,61.3333333 L48.3333333,61.3333333 L48.3333333,52 C48.3333333,51.264 47.736,50.6666667 47,50.6666667 C46.264,50.6666667 45.6666667,51.264 45.6666667,52 L45.6666667,61.3333333 L35,61.3333333 L35,52 C35,51.264 34.4026667,50.6666667 33.6666667,50.6666667 C32.9306667,50.6666667 32.3333333,51.264 32.3333333,52 L32.3333333,61.3333333 Z M3,40 L3,36 C3,30.8533333 7.18666667,26.6666667 12.3333333,26.6666667 L25.6666667,26.6666667 C26.0586667,26.6666667 26.4293333,26.496 26.6853333,26.1946667 C26.936,25.896 27.0453333,25.5013333 26.9813333,25.1146667 L24.3333333,9.33333333 C24.3333333,5.65866667 27.3226667,2.66666667 31,2.66666667 C34.6773333,2.66666667 37.6666667,5.65866667 37.6853333,9.11466667 L35.0186667,25.1146667 C34.952,25.5013333 35.0613333,25.896 35.3146667,26.1946667 C35.5706667,26.496 35.9413333,26.6666667 36.3333333,26.6666667 L49.6666667,26.6666667 C54.8133333,26.6666667 59,30.8533333 59,36 L59,40 L3,40 Z M60.3333333,64 L20.3333333,64 C19.7226667,64 19.1866667,63.584 19.04,62.9893333 L17.6666667,57.4986667 L16.2933333,62.992 C16.1466667,63.584 15.6106667,64 15,64 L1.66666667,64 C0.930666667,64 0.333333333,63.4026667 0.333333333,62.6666667 L0.333333333,36 C0.333333333,29.384 5.71733333,24 12.3333333,24 L24.0933333,24 L21.6853333,9.552 C21.6666667,4.18666667 25.8533333,0 31,0 C36.1466667,0 40.3333333,4.18666667 40.3333333,9.33333333 L37.9066667,24 L49.6666667,24 C56.2826667,24 61.6666667,29.384 61.6666667,36 L61.6666667,62.6666667 C61.6666667,63.4026667 61.0693333,64 60.3333333,64 Z" id="handwork"></path>
                </g>
            </g>
        </g>
    </g>
</svg>