<?xml version="1.0" encoding="UTF-8"?>
<svg width="64px" height="64px" viewBox="0 0 64 64" version="1.1" xmlns="http://www.w3.org/2000/svg" xmlns:xlink="http://www.w3.org/1999/xlink">
    <!-- Generator: Sketch 40.3 (33839) - http://www.bohemiancoding.com/sketch -->
    <title>sketch</title>
    <desc>Created with Sketch.</desc>
    <defs>
        <linearGradient x1="50%" y1="219.347551%" x2="50%" y2="-31.4449954%" id="linearGradient-1">
            <stop stop-color="#2DA5F0" offset="0%"></stop>
            <stop stop-color="#F1D741" offset="100%"></stop>
        </linearGradient>
    </defs>
    <g id="Draft-02" stroke="none" stroke-width="1" fill="none" fill-rule="evenodd">
        <g id="Flat-Thin-12" transform="translate(-124.000000, -4468.000000)" fill="url(#linearGradient-1)">
            <g id="Group-30" transform="translate(-5.000000, 3275.000000)">
                <g id="Group-9" transform="translate(128.000000, 1193.000000)">
                    <path d="M18.2540228,56.4180732 C21.2482901,53.3080013 29.6571842,44.8313334 51.5905094,23.1131761 L53.3893333,24.912 C53.6506667,25.1706667 53.992,25.3013333 54.3333333,25.3013333 C54.6746667,25.3013333 55.016,25.1706667 55.2746667,24.912 C55.7946667,24.392 55.7946667,23.5466667 55.2746667,23.0266667 L53.4853192,21.2373192 C56.4027363,18.3496309 59.5472287,15.2396486 62.936,11.8906667 C64.2613333,10.5813333 64.9946667,8.83466667 65,6.97066667 C65.0053333,5.104 64.28,3.34666667 62.9386667,2.008 C60.3093333,-0.621333333 55.7253333,-0.621333333 53.096,2.008 L43.6738327,11.4258327 L40.608,8.36 C40.348,8.1 40.0066667,7.97 39.6653333,7.97 C39.324,7.97 38.9826667,8.1 38.7226667,8.36 L20.056,27.0266667 C19.536,27.5466667 19.536,28.392 20.056,28.912 C20.3173333,29.1706667 20.6586667,29.3013333 21,29.3013333 C21.3413333,29.3013333 21.6826667,29.1706667 21.9413333,28.912 L39.6653333,11.188 L41.7880656,13.3107323 L8.08077413,47.0025173 C8.0724373,47.0104385 8.06417841,47.0184883 8.056,47.0266667 C8.04796922,47.0346974 8.04006247,47.0428058 8.03227975,47.0509894 L6.72266667,48.36 C6.59733333,48.488 6.49333333,48.64 6.42933333,48.808 L1.096,62.1413333 C0.896,62.6346667 1.01066667,63.2 1.38933333,63.5786667 C1.64533333,63.832 1.98666667,63.968 2.33333333,63.968 C2.49866667,63.968 2.66933333,63.936 2.82666667,63.872 L16.16,58.5386667 C16.448,58.4213333 16.6853333,58.2106667 16.832,57.944 C16.9385696,57.8149771 17.1474801,57.5830236 17.5066046,57.2016532 C17.6650797,57.1366635 17.8133286,57.0400047 17.9413333,56.912 C18.0855728,56.7677605 18.1898026,56.5984893 18.2540228,56.4180732 Z M16.9244413,54.0097746 C20.5259359,50.2092044 29.1335692,41.5830989 49.7017578,21.2244245 L43.672381,15.1950476 L10.8844208,47.9697541 L16.9244413,54.0097746 Z M15.1239822,55.9799822 C15.0782846,56.0335592 15.0352303,56.0846257 14.9946667,56.1333333 L4.72533333,60.24 L8.80266667,50.0506667 L8.99870629,49.8547063 L15.1239822,55.9799822 Z M51.5968881,19.3488881 C54.5161574,16.4602308 57.6641127,13.3471983 61.0586667,9.992 C61.8773333,9.18666667 62.3306667,8.10933333 62.3333333,6.96266667 C62.336,5.81066667 61.8906667,4.72533333 61.072,3.90933333 C59.4106667,2.25066667 56.6053333,2.26933333 54.9813333,3.89066667 L45.5580954,13.3100954 L51.5968881,19.3488881 Z" id="sketch"></path>
                </g>
            </g>
        </g>
    </g>
</svg>