<?xml version="1.0" encoding="UTF-8"?>
<svg width="109px" height="101px" viewBox="0 0 109 101" version="1.1" xmlns="http://www.w3.org/2000/svg" xmlns:xlink="http://www.w3.org/1999/xlink">
    <!-- Generator: Sketch 40.3 (33839) - http://www.bohemiancoding.com/sketch -->
    <title>confirm</title>
    <desc>Created with Sketch.</desc>
    <defs>
        <linearGradient x1="0%" y1="0%" x2="100%" y2="100%" id="linearGradient-1">
            <stop stop-color="#FBC858" offset="0%"></stop>
            <stop stop-color="#FD565F" offset="100%"></stop>
        </linearGradient>
    </defs>
    <g id="Draft-02" stroke="none" stroke-width="1" fill="none" fill-rule="evenodd">
        <g id="Flat-Thin-10-Mod" transform="translate(-497.000000, -4897.000000)" fill="url(#linearGradient-1)">
            <path d="M605.925419,4944.9185 C605.714463,4939.67575 599.474524,4934.643 594.259,4934.643 C592.93193,4934.643 591.442598,4934.64204 589.602615,4934.64017 C588.900469,4934.63945 588.392841,4934.63889 587.199463,4934.6375 C583.279904,4934.63292 582.344216,4934.632 581.015,4934.632 C578.585587,4934.632 578.389,4934.54437 578.389,4933.745 C578.389,4932.98957 577.852929,4933.80963 581.466989,4928.83794 C581.893611,4928.25105 582.263856,4927.71132 582.607029,4927.16791 C585.975527,4921.83195 587.312,4918.16377 587.312,4912.124 C587.312,4904.80546 583.141798,4897 576.585,4897 C574.011087,4897 572.079638,4898.32026 570.731497,4900.62606 C569.823735,4902.17865 569.282166,4903.80852 568.472991,4906.93214 C568.432582,4907.08812 568.389098,4907.25663 568.306233,4907.57788 C567.756879,4909.70574 567.45805,4910.72067 567.058359,4911.68877 C565.930372,4914.42161 563.910157,4916.83489 560.475637,4919.92556 C559.972725,4920.37812 557.12033,4922.86744 556.36347,4923.5639 C554.824996,4924.97961 553.765533,4926.12678 552.996275,4927.29812 C552.523163,4928.01846 548.878524,4934.15766 547.870929,4935.79984 C547.558045,4936.30977 542.033189,4943.76449 542,4943.785 C542.116825,4943.7128 535.791,4943.785 535.791,4943.785 L535.83,4987.737 C535.83,4987.79747 535.791,4988.13087 535.791,4988.13087 L535.791,4988.587 L535.791,4990.50327 L537.705517,4990.58517 C538.112709,4990.60259 538.43115,4990.63392 538.639814,4990.67462 C538.623618,4990.65159 538.491834,4990.57326 538.337786,4990.41921 C538.36953,4990.45096 538.520985,4990.60468 538.559971,4990.64392 C538.675318,4990.76002 538.778149,4990.86093 538.887698,4990.96438 C539.185957,4991.24605 539.490401,4991.50422 539.826739,4991.75153 C541.366134,4992.88345 543.246099,4993.542 545.57,4993.542 L590.321,4993.542 C594.511852,4993.542 597.661656,4991.60547 599.39144,4988.4448 C600.799535,4985.87193 601.092718,4982.6599 600.14857,4980.57045 C599.926351,4980.07812 599.861138,4980.39068 600.028535,4980.27554 C603.165809,4978.1177 604.474094,4972.1415 602.670569,4968.7697 C602.385002,4968.23529 602.285907,4967.94981 602.286739,4967.87844 C605.966701,4964.75119 606.881181,4958.33138 603.643265,4954.32656 C603.284151,4953.88241 603.284187,4953.89199 603.544539,4953.63189 C605.309356,4951.86707 606.097725,4949.24992 605.925419,4944.9185 Z M600.532768,4956.84148 C602.355665,4959.09613 601.784746,4963.10408 599.760173,4964.88708 C597.914376,4966.51185 597.893332,4968.3169 599.143051,4970.6556 C600.04266,4972.33747 599.087686,4976.29849 597.666831,4977.03781 C595.416998,4978.20484 595.435267,4979.85104 596.503089,4982.2168 C596.894988,4983.08409 596.72076,4984.99289 595.88256,4986.52445 C594.842951,4988.42403 593.024544,4989.542 590.321,4989.542 L545.57,4989.542 C544.128155,4989.542 543.069927,4989.17131 542.196325,4988.52894 C541.852474,4988.27611 541.835553,4988.26013 541.166214,4987.59079 C540.414681,4986.83925 539.83,4987.11229 539.83,4987 C539.83,4973.63896 540,4947.785 540,4947.785 L542.726,4947.785 C544.773263,4947.785 546.533482,4945.47969 550.351966,4939.3893 C550.652085,4938.91062 550.96092,4938.41229 551.280314,4937.89175 C552.330324,4936.18045 555.925527,4930.12451 556.339678,4929.49395 C556.890338,4928.65547 557.754806,4927.71943 559.072016,4926.50733 C559.781505,4925.85446 562.610707,4923.38538 563.151303,4922.89891 C566.994131,4919.44081 569.345276,4916.63222 570.755713,4913.21506 C571.250471,4912.0167 571.582879,4910.88772 572.179241,4908.57778 C572.262389,4908.25544 572.305312,4908.08911 572.345175,4907.93523 C573.699483,4902.70726 574.697671,4901 576.585,4901 C580.254921,4901 583.312,4906.72201 583.312,4912.124 C583.312,4917.29582 582.224529,4920.28057 579.224797,4925.03237 C578.932626,4925.49502 578.610302,4925.9649 578.231514,4926.48598 C578.284019,4926.41375 576.27341,4929.07952 575.796276,4929.80942 C574.875631,4931.21778 574.389,4932.42869 574.389,4933.745 C574.389,4935.80103 575.291053,4937.30755 576.95547,4938.04948 C578.028071,4938.5276 579.068915,4938.632 581.015,4938.632 C582.341909,4938.632 583.277401,4938.63292 587.194787,4938.6375 C588.388333,4938.63888 588.896159,4938.63945 589.598552,4938.64017 C591.439774,4938.64204 592.93035,4938.643 594.259,4938.643 C597.464565,4938.643 601.810718,4942.14834 601.928617,4945.07841 C602.06011,4948.38389 601.596441,4949.92313 600.716786,4950.80279 C598.935279,4952.58259 598.943914,4954.87641 600.532768,4956.84148 Z M497,4995.993 L497,4997.993 L499,4997.993 L530.167,4997.993 L532.167,4997.993 L532.167,4995.993 L532.167,4941.16 L532.167,4939.16 L530.167,4939.16 L499,4939.16 L497,4939.16 L497,4941.16 L497,4995.993 Z M501,4943.16 L528,4943.16 L528,4993.993 L501,4994 L501,4943.16 Z M511.083,4983.326 C511.083,4981.39317 512.649971,4979.826 514.583,4979.826 C516.516029,4979.826 518.083,4981.39317 518.083,4983.326 C518.083,4985.25883 516.516029,4986.826 514.583,4986.826 C512.649971,4986.826 511.083,4985.25883 511.083,4983.326 Z M522.083,4983.326 C522.083,4979.18414 518.72528,4975.826 514.583,4975.826 C510.44072,4975.826 507.083,4979.18414 507.083,4983.326 C507.083,4987.46786 510.44072,4990.826 514.583,4990.826 C518.72528,4990.826 522.083,4987.46786 522.083,4983.326 Z" id="confirm"></path>
        </g>
    </g>
</svg>